<mxfile host="app.diagrams.net" modified="2023-09-26T10:09:12.077Z" agent="Mozilla/5.0 (Windows NT 10.0; Win64; x64) AppleWebKit/537.36 (KHTML, like Gecko) Chrome/117.0.0.0 Safari/537.36" etag="DdOfDqR3pjLUshINTFDq" version="21.6.9" type="github">
  <diagram name="Page-1" id="bzogRPKxFsZK3mkTOQ_Y">
    <mxGraphModel dx="3745" dy="652" grid="1" gridSize="10" guides="1" tooltips="1" connect="1" arrows="1" fold="1" page="1" pageScale="1" pageWidth="850" pageHeight="1100" math="0" shadow="0">
      <root>
        <mxCell id="0" />
        <mxCell id="1" parent="0" />
        <mxCell id="yR07YyQ4Q3w7H8bIqNnl-29" value="" style="group" parent="1" vertex="1" connectable="0">
          <mxGeometry x="-1882.5" y="1090" width="460" height="180" as="geometry" />
        </mxCell>
        <mxCell id="yR07YyQ4Q3w7H8bIqNnl-18" value="" style="rounded=0;whiteSpace=wrap;html=1;" parent="yR07YyQ4Q3w7H8bIqNnl-29" vertex="1">
          <mxGeometry width="460" height="140" as="geometry" />
        </mxCell>
        <mxCell id="yR07YyQ4Q3w7H8bIqNnl-19" value="My Mobifone" style="rounded=0;whiteSpace=wrap;html=1;" parent="yR07YyQ4Q3w7H8bIqNnl-29" vertex="1">
          <mxGeometry x="30" y="40" width="120" height="60" as="geometry" />
        </mxCell>
        <mxCell id="yR07YyQ4Q3w7H8bIqNnl-20" value="DTHGD" style="rounded=0;whiteSpace=wrap;html=1;" parent="yR07YyQ4Q3w7H8bIqNnl-29" vertex="1">
          <mxGeometry x="180" y="40" width="120" height="60" as="geometry" />
        </mxCell>
        <mxCell id="yR07YyQ4Q3w7H8bIqNnl-21" value="TCQLKH" style="rounded=0;whiteSpace=wrap;html=1;" parent="yR07YyQ4Q3w7H8bIqNnl-29" vertex="1">
          <mxGeometry x="320" y="40" width="120" height="60" as="geometry" />
        </mxCell>
        <mxCell id="yR07YyQ4Q3w7H8bIqNnl-46" value="" style="edgeStyle=orthogonalEdgeStyle;rounded=0;orthogonalLoop=1;jettySize=auto;html=1;" parent="yR07YyQ4Q3w7H8bIqNnl-29" source="yR07YyQ4Q3w7H8bIqNnl-45" target="yR07YyQ4Q3w7H8bIqNnl-21" edge="1">
          <mxGeometry relative="1" as="geometry" />
        </mxCell>
        <mxCell id="yR07YyQ4Q3w7H8bIqNnl-45" value="&lt;font style=&quot;font-size: 18px;&quot;&gt;Mobifone Bussiness APP&lt;/font&gt;" style="text;strokeColor=none;fillColor=none;html=1;fontSize=24;fontStyle=1;verticalAlign=middle;align=center;" parent="yR07YyQ4Q3w7H8bIqNnl-29" vertex="1">
          <mxGeometry x="210" width="100" height="40" as="geometry" />
        </mxCell>
        <mxCell id="yR07YyQ4Q3w7H8bIqNnl-30" value="" style="rounded=0;whiteSpace=wrap;html=1;" parent="1" vertex="1">
          <mxGeometry x="-2040" y="430" width="865" height="640" as="geometry" />
        </mxCell>
        <mxCell id="yR07YyQ4Q3w7H8bIqNnl-5" value="" style="rounded=0;whiteSpace=wrap;html=1;" parent="1" vertex="1">
          <mxGeometry x="-1880" y="520" width="440" height="270" as="geometry" />
        </mxCell>
        <mxCell id="yR07YyQ4Q3w7H8bIqNnl-2" value="&lt;div style=&quot;text-align: justify;&quot;&gt;&lt;b style=&quot;background-color: initial;&quot;&gt;GOLD DB&lt;/b&gt;&lt;/div&gt;&lt;div style=&quot;text-align: justify;&quot;&gt;&lt;br&gt;&lt;/div&gt;10.50.9.124&lt;br&gt;10.50.9.126&lt;br&gt;10.50.9.128&lt;br&gt;10.50.9.130" style="rounded=1;whiteSpace=wrap;html=1;" parent="1" vertex="1">
          <mxGeometry x="-1330" y="510" width="130" height="155" as="geometry" />
        </mxCell>
        <mxCell id="yR07YyQ4Q3w7H8bIqNnl-6" value="10.3.65.36" style="rounded=0;whiteSpace=wrap;html=1;" parent="1" vertex="1">
          <mxGeometry x="-1840" y="540" width="120" height="60" as="geometry" />
        </mxCell>
        <mxCell id="yR07YyQ4Q3w7H8bIqNnl-7" value="10.3.65.37" style="rounded=0;whiteSpace=wrap;html=1;" parent="1" vertex="1">
          <mxGeometry x="-1610" y="540" width="120" height="60" as="geometry" />
        </mxCell>
        <mxCell id="yR07YyQ4Q3w7H8bIqNnl-8" value="CBT 10.3.31.34" style="rounded=1;whiteSpace=wrap;html=1;" parent="1" vertex="1">
          <mxGeometry x="-1720" y="630" width="120" height="60" as="geometry" />
        </mxCell>
        <mxCell id="yR07YyQ4Q3w7H8bIqNnl-9" value="10.3.15.185" style="rounded=0;whiteSpace=wrap;html=1;" parent="1" vertex="1">
          <mxGeometry x="-1850" y="700" width="120" height="60" as="geometry" />
        </mxCell>
        <mxCell id="yR07YyQ4Q3w7H8bIqNnl-10" value="10.3.15.186" style="rounded=0;whiteSpace=wrap;html=1;" parent="1" vertex="1">
          <mxGeometry x="-1600" y="700" width="120" height="60" as="geometry" />
        </mxCell>
        <mxCell id="yR07YyQ4Q3w7H8bIqNnl-15" value="" style="group" parent="1" vertex="1" connectable="0">
          <mxGeometry x="-1887.5" y="840" width="455" height="120" as="geometry" />
        </mxCell>
        <mxCell id="yR07YyQ4Q3w7H8bIqNnl-11" value="" style="rounded=0;whiteSpace=wrap;html=1;" parent="yR07YyQ4Q3w7H8bIqNnl-15" vertex="1">
          <mxGeometry width="455" height="120" as="geometry" />
        </mxCell>
        <mxCell id="yR07YyQ4Q3w7H8bIqNnl-12" value="10.38.31.238" style="rounded=0;whiteSpace=wrap;html=1;" parent="yR07YyQ4Q3w7H8bIqNnl-15" vertex="1">
          <mxGeometry x="17.5" y="30" width="120" height="60" as="geometry" />
        </mxCell>
        <mxCell id="yR07YyQ4Q3w7H8bIqNnl-13" value="10.38.31.192" style="rounded=0;whiteSpace=wrap;html=1;" parent="yR07YyQ4Q3w7H8bIqNnl-15" vertex="1">
          <mxGeometry x="167.5" y="30" width="120" height="60" as="geometry" />
        </mxCell>
        <mxCell id="yR07YyQ4Q3w7H8bIqNnl-14" value="10.38.31.20" style="rounded=0;whiteSpace=wrap;html=1;" parent="yR07YyQ4Q3w7H8bIqNnl-15" vertex="1">
          <mxGeometry x="317.5" y="30" width="120" height="60" as="geometry" />
        </mxCell>
        <mxCell id="yR07YyQ4Q3w7H8bIqNnl-16" value="&lt;b&gt;CBT&lt;/b&gt;&lt;br&gt;10.50.9.2" style="rounded=0;whiteSpace=wrap;html=1;" parent="1" vertex="1">
          <mxGeometry x="-1822.5" y="990" width="340" height="40" as="geometry" />
        </mxCell>
        <mxCell id="yR07YyQ4Q3w7H8bIqNnl-22" value="&lt;b&gt;HLRGW DB&lt;br&gt;&lt;/b&gt;&lt;br&gt;10.38.45.44&lt;br&gt;10.38.45.45" style="rounded=1;whiteSpace=wrap;html=1;" parent="1" vertex="1">
          <mxGeometry x="-1330" y="680" width="120" height="100" as="geometry" />
        </mxCell>
        <mxCell id="yR07YyQ4Q3w7H8bIqNnl-23" value="Valid&lt;br&gt;10.38.200.169" style="ellipse;whiteSpace=wrap;html=1;aspect=fixed;" parent="1" vertex="1">
          <mxGeometry x="-2030" y="600" width="90" height="90" as="geometry" />
        </mxCell>
        <mxCell id="yR07YyQ4Q3w7H8bIqNnl-24" value="&lt;b&gt;CBT&lt;/b&gt;" style="rounded=0;whiteSpace=wrap;html=1;" parent="1" vertex="1">
          <mxGeometry x="-1801.25" y="450" width="297.5" height="40" as="geometry" />
        </mxCell>
        <mxCell id="yR07YyQ4Q3w7H8bIqNnl-31" value="" style="group" parent="1" vertex="1" connectable="0">
          <mxGeometry x="-1960" y="140" width="660" height="230" as="geometry" />
        </mxCell>
        <mxCell id="yR07YyQ4Q3w7H8bIqNnl-26" value="&lt;div style=&quot;text-align: justify;&quot;&gt;&lt;b style=&quot;background-color: initial;&quot;&gt;&lt;font style=&quot;font-size: 19px;&quot;&gt;Internet&lt;/font&gt;&lt;/b&gt;&lt;/div&gt;" style="ellipse;shape=cloud;whiteSpace=wrap;html=1;align=center;" parent="yR07YyQ4Q3w7H8bIqNnl-31" vertex="1">
          <mxGeometry width="660" height="230" as="geometry" />
        </mxCell>
        <mxCell id="yR07YyQ4Q3w7H8bIqNnl-28" value="&lt;b&gt;IDEMIA&lt;/b&gt;&lt;br&gt;mconnect-es2-00.5.oberthunnet" style="rounded=1;whiteSpace=wrap;html=1;" parent="yR07YyQ4Q3w7H8bIqNnl-31" vertex="1">
          <mxGeometry x="395" y="70" width="140" height="90" as="geometry" />
        </mxCell>
        <mxCell id="yR07YyQ4Q3w7H8bIqNnl-32" value="" style="endArrow=classic;html=1;rounded=0;exitX=0.5;exitY=1;exitDx=0;exitDy=0;" parent="1" source="yR07YyQ4Q3w7H8bIqNnl-5" target="yR07YyQ4Q3w7H8bIqNnl-11" edge="1">
          <mxGeometry width="50" height="50" relative="1" as="geometry">
            <mxPoint x="-1540" y="890" as="sourcePoint" />
            <mxPoint x="-1490" y="840" as="targetPoint" />
          </mxGeometry>
        </mxCell>
        <mxCell id="yR07YyQ4Q3w7H8bIqNnl-34" value="" style="endArrow=classic;startArrow=classic;html=1;rounded=0;exitX=1;exitY=0.25;exitDx=0;exitDy=0;entryX=0;entryY=0.5;entryDx=0;entryDy=0;" parent="1" source="yR07YyQ4Q3w7H8bIqNnl-5" target="yR07YyQ4Q3w7H8bIqNnl-2" edge="1">
          <mxGeometry width="50" height="50" relative="1" as="geometry">
            <mxPoint x="-1400" y="630" as="sourcePoint" />
            <mxPoint x="-1350" y="580" as="targetPoint" />
          </mxGeometry>
        </mxCell>
        <mxCell id="yR07YyQ4Q3w7H8bIqNnl-35" value="1521" style="edgeLabel;html=1;align=center;verticalAlign=middle;resizable=0;points=[];" parent="yR07YyQ4Q3w7H8bIqNnl-34" vertex="1" connectable="0">
          <mxGeometry x="0.0528" y="-3" relative="1" as="geometry">
            <mxPoint y="-3" as="offset" />
          </mxGeometry>
        </mxCell>
        <mxCell id="yR07YyQ4Q3w7H8bIqNnl-36" value="" style="endArrow=classic;startArrow=classic;html=1;rounded=0;exitX=1.001;exitY=0.781;exitDx=0;exitDy=0;exitPerimeter=0;entryX=0;entryY=0.5;entryDx=0;entryDy=0;" parent="1" source="yR07YyQ4Q3w7H8bIqNnl-5" target="yR07YyQ4Q3w7H8bIqNnl-22" edge="1">
          <mxGeometry width="50" height="50" relative="1" as="geometry">
            <mxPoint x="-1270" y="630" as="sourcePoint" />
            <mxPoint x="-1220" y="580" as="targetPoint" />
          </mxGeometry>
        </mxCell>
        <mxCell id="yR07YyQ4Q3w7H8bIqNnl-37" value="1521" style="edgeLabel;html=1;align=center;verticalAlign=middle;resizable=0;points=[];" parent="yR07YyQ4Q3w7H8bIqNnl-36" vertex="1" connectable="0">
          <mxGeometry x="0.0725" relative="1" as="geometry">
            <mxPoint as="offset" />
          </mxGeometry>
        </mxCell>
        <mxCell id="yR07YyQ4Q3w7H8bIqNnl-39" value="" style="endArrow=classic;html=1;rounded=0;" parent="1" edge="1">
          <mxGeometry width="50" height="50" relative="1" as="geometry">
            <mxPoint x="-1850" y="520" as="sourcePoint" />
            <mxPoint x="-1850" y="330" as="targetPoint" />
          </mxGeometry>
        </mxCell>
        <mxCell id="yR07YyQ4Q3w7H8bIqNnl-42" value="" style="endArrow=classic;html=1;rounded=0;" parent="1" edge="1">
          <mxGeometry width="50" height="50" relative="1" as="geometry">
            <mxPoint x="-1480" y="520" as="sourcePoint" />
            <mxPoint x="-1480" y="340" as="targetPoint" />
          </mxGeometry>
        </mxCell>
        <mxCell id="yR07YyQ4Q3w7H8bIqNnl-43" value="" style="endArrow=classic;html=1;rounded=0;exitX=0.485;exitY=0.913;exitDx=0;exitDy=0;exitPerimeter=0;" parent="1" source="yR07YyQ4Q3w7H8bIqNnl-26" edge="1">
          <mxGeometry width="50" height="50" relative="1" as="geometry">
            <mxPoint x="-1690" y="500" as="sourcePoint" />
            <mxPoint x="-1640" y="450" as="targetPoint" />
          </mxGeometry>
        </mxCell>
        <mxCell id="yR07YyQ4Q3w7H8bIqNnl-44" value="" style="endArrow=classic;startArrow=classic;html=1;rounded=0;" parent="1" source="yR07YyQ4Q3w7H8bIqNnl-23" target="yR07YyQ4Q3w7H8bIqNnl-5" edge="1">
          <mxGeometry width="50" height="50" relative="1" as="geometry">
            <mxPoint x="-1920" y="630" as="sourcePoint" />
            <mxPoint x="-1870" y="580" as="targetPoint" />
          </mxGeometry>
        </mxCell>
      </root>
    </mxGraphModel>
  </diagram>
</mxfile>
